<?xml version="1.0"?>
<svg xmlns="http://www.w3.org/2000/svg" viewBox="0 0 24 24" enable-background="new 0 0 24 24" fill="#ffffff">
    <path d="M 4.75 2 C 4.475 2 4.2 2.1125 4 2.3125 L 2.3125 4 C 1.9125 4.4 1.9125 5.1 2.3125 5.5 L 5.8125 9 L 7.90625 10 L 10 7.90625 L 9 5.8125 L 5.5 2.3125 C 5.3 2.1125 5.025 2 4.75 2 z M 13.09375 7.8125 C 12.29375 7.8125 11.50625 8.0875 10.90625 8.6875 L 7.3125 12.3125 C 7.0125 12.7125 7.0125 13.29375 7.3125 13.59375 L 10.40625 16.6875 C 10.70625 17.0875 11.2875 17.0875 11.6875 16.6875 L 15.3125 13.09375 C 16.5125 11.89375 16.5125 9.8875 15.3125 8.6875 C 14.7125 8.0875 13.89375 7.8125 13.09375 7.8125 z M 16.09375 14 L 14 16.09375 L 15 18.1875 L 18.5 21.6875 C 18.9 22.0875 19.6 22.0875 20 21.6875 L 21.59375 20.09375 C 21.99375 19.69375 21.99375 18.99375 21.59375 18.59375 L 18.1875 15.09375 L 16.09375 14 z"/>
</svg>
